<?xml version="1.0" encoding="UTF-8"?><svg id="a" xmlns="http://www.w3.org/2000/svg" viewBox="0 0 1920 314.31"><defs><style>.b{fill:#a0aec0;}</style></defs><path class="b" d="M1278.96,0c85.72,.05,157.5,72.04,157.12,157.56-.38,85.85-72.12,157.04-157.95,156.73-86.48-.31-156.18-70.64-156.12-157.56C1122.06,70.2,1192.4-.04,1278.96,0Zm68.15,155.47c-.31-35.49-32.53-67.17-68.76-67.62-36.92-.46-68.94,32.04-68.7,69.74,.23,37.59,32.9,69.91,69.59,68.86,37.3-1.07,68.2-33.38,67.87-70.98Z"/><path class="b" d="M772.55,314.28c-85.66-1.55-155.15-74.18-153.53-160.49C620.63,68.1,693.21-1.5,779.36,.02c85.3,1.51,156.24,75.52,153.87,160.53-2.4,86.21-74.6,155.29-160.68,153.73Zm-65.82-156.22c.54,37.3,33.31,69.08,70.4,68.26,35.98-.8,67.41-32.79,67.66-68.87,.25-36.85-32.83-69.93-69.48-69.47-37.48,.47-69.12,32.8-68.58,70.08Z"/><path class="b" d="M452.6,314.3c-85.97,.23-157.43-70.68-157.67-156.47C294.69,71.8,365.47,.34,451.24,0c85.81-.33,157.47,70.66,157.96,156.46,.48,85.53-71.03,157.61-156.59,157.83Zm.13-226.32c-37.18-.61-69.79,31.36-70.06,68.69-.27,37.32,31.67,69.53,69.1,69.68,35.45,.14,68.17-31.68,69.4-67.5,1.24-36.05-31.81-70.26-68.45-70.87Z"/><path class="b" d="M1808.34,216.96c-19.64-11.92-36-21.93-52.45-31.81-22.1-13.27-44.25-26.46-66.4-39.65-56.21-33.48-58.98-61.69-10.35-105.74,66.47-60.2,173.02-50.1,227.16,21.53,18.39,24.32,17.84,47.84-1.5,64.8-19.03,16.69-46.36,13.11-66.39-8.68-26.57-28.9-50.05-35.54-80.01-20.89,5.61,4.27,10.08,8.36,15.16,11.42,38.63,23.31,77.61,46.03,116.01,69.7,36.45,22.47,39.92,49.24,11.59,81.48-66.65,75.84-179.59,73.04-242.61-6.01-18.63-23.36-17.42-50.62,2.94-66.69,18.34-14.47,46.4-9.94,64.5,10.42,24.97,28.08,50.59,35.41,82.34,20.11Z"/><path class="b" d="M165.83,314.27c-81.64,.25-145.15-50.77-161.92-123.17C-12.16,121.7,22.47,48.68,86.5,16.97,153.28-16.12,231.43,.82,278.56,58.58c21.17,25.95,20.93,49.84-.68,68.19-19.15,16.26-45.85,13.06-65.81-10.57-41.61-49.24-104.37-25.82-119.89,16.86-10.44,28.71-.65,62.4,24.04,79.52,27.66,19.18,61.93,17.26,86.69-5.18,5.94-5.39,10.68-12.1,16.64-17.47,16.62-14.98,41.48-16.08,57.59-3.01,18.8,15.24,23.13,37.03,8.83,58.07-30.67,45.13-74.46,67.22-120.12,69.27Z"/><path class="b" d="M943.24,106.14c-.02-20.13-.7-40.3,.15-60.4,1.12-26.64,19.92-45.54,43.69-45.39,23.89,.15,42.48,18.96,43.17,45.84,.86,33.81,.11,67.65,.42,101.47,.43,46.83,21.88,71.61,67.8,78.92,32.86,5.23,47.43,22.48,43.44,51.44-3.37,24.44-23.88,38.08-54.1,35.97-76.9-5.36-141.19-71.83-144.42-149.87-.8-19.3-.12-38.65-.14-57.98Z"/><path class="b" d="M1446.17,205.28c.01-17.72-.28-35.44,.06-53.16,1.52-78.32,66.71-146.58,144.81-151.83,33.74-2.27,55.56,16.36,54.18,46.24-1.03,22.43-13.8,36.32-37.23,40.5-58.08,10.37-74.31,29.94-74.38,89.74-.04,29,.35,58-.17,86.98-.53,30.22-18.55,50.33-43.93,50.21-25.41-.12-42.75-20.19-43.28-50.7-.34-19.32-.06-38.66-.05-57.99Z"/></svg>