<?xml version="1.0" encoding="UTF-8"?><svg id="a" xmlns="http://www.w3.org/2000/svg" viewBox="0 0 1920 688.06"><defs><style>.b{fill:#718096;}.c{fill:#a0aec0;}.d{fill:#ccd5e0;}</style></defs><path class="c" d="M227.25,1.47c44.35-.3,88.89-4.11,132.97,1.84,47.36,6.39,78.62,34.95,92.46,79.89,13.18,42.79,2.02,81.71-28.71,113.99-17.81,18.71-41.1,28.36-66.45,32.83-11.1,0-22.2,0-33.3,0-31.45,0-62.91-.02-94.36-.03-.91-.1-1.83-.19-2.74-.29,.04-76.08,.09-152.16,.13-228.24Z"/><path class="c" d="M227.12,229.71c.91,.1,1.83,.19,2.74,.29-.01,29.92-.02,59.83-.03,89.75,0,16.55,0,33.1,0,49.65-.13,29.91-.25,59.82-.38,89.73-17.3,.01-34.62,.39-51.91-.05-27.47-.7-55.04,2.43-82.4-2.27C47.08,451.68,3.48,402.48,.27,354.18c-4.12-62.09,39.31-112.24,93.26-122.11,1.42-.26,2.69-1.39,4.03-2.12,43.19-.08,86.37-.16,129.56-.24Z"/><path class="b" d="M227.12,229.71c-43.19,.08-86.37,.16-129.56,.24C46.24,221.76,4.89,177.46,.67,128.23-4.86,63.91,38.28,18.86,81.41,7.01c13.12-3.6,26.32-5.3,39.54-5.54,35.42-.65,70.87-.08,106.3,0-.04,76.08-.09,152.16-.13,228.24Z"/><path class="d" d="M95.14,456.81c27.35,4.71,54.93,1.58,82.4,2.27,17.29,.44,34.61,.06,51.91,.05-.37,44.42,3.56,88.99-2.11,133.22-8.82,68.8-87.05,113.9-151.48,88.58-39.32-15.45-64.69-43.33-73.27-84.32-13.22-63.11,26.66-118.87,81.17-133.3,4.06-1.07,10.03-.17,11.39-6.51Z"/><path class="d" d="M229.83,369.4c0-16.55,0-33.1,0-49.65,.97-2.07,2.16-4.07,2.87-6.23,13.16-39.85,39.33-66.52,79.67-79,4.01-1.24,8.58-1.23,11.86-4.49,11.1,0,22.2,0,33.3,0,17.86,5.55,35.91,10.13,51.74,21.19,59.93,41.84,64.15,131.8,9.95,178.83-66.25,57.49-164.84,24.5-187.22-56.62-.4-1.43-1.43-2.69-2.17-4.03Z"/><path class="c" d="M1360.07,475.43h-43.76V245.09h43.2c.4,5.88,.78,11.48,1.21,17.86,37.55-38.14,94.5-32.67,125.9,12.34,11.01-11.03,20.98-22.8,35.7-29.65,50.19-23.38,106.85,6.89,114.79,61.84,1.69,11.71,2.41,23.41,2.37,35.23-.12,39.77-.05,79.54-.05,119.31v13.38h-42.73c-2.63-4.49-1.56-8.92-1.56-13.14-.09-42.92,0-85.84-.08-128.76-.03-20.26-6.85-36.87-25.78-46.84-31.12-16.39-68.91,5.82-69.16,41.09-.32,44.49-.08,88.99-.08,133.49,0,4.3,0,8.6,0,13.87h-43.63c-2.45-3.79-1.21-8.23-1.22-12.41-.11-43.71,0-87.42-.1-131.12-.05-19.07-7.57-34.76-24.26-44.26-31.6-17.98-70.34,4.74-70.65,41.32-.38,44.49-.09,88.99-.09,133.49,0,4.23,0,8.47,0,13.31Z"/><path class="c" d="M1202.45,263.56c.31-6.91,.54-11.99,.81-17.96h42.31c2.98,3.05,1.59,7.2,1.59,10.93,.09,68.5,.16,136.99,.04,205.49-.11,58.08-47.05,107.15-105.12,111.09-25.15,1.71-48.01-3.56-69.83-17.68,6.71-13.02,13.63-25.46,21.74-37.23,54.44,33.68,120.84-5.32,107.9-87.24-6.26,4.46-11.83,9.18-18.05,12.74-44.53,25.44-100.19,11.05-128.14-32.13-27.6-42.63-22.28-105.25,8.67-140.57,33.01-37.66,93.56-44.68,130.09-13.09,1.99,1.72,4.31,3.07,7.98,5.65Zm-59.64,17.85c-33.66-.2-60.87,28.44-60.97,64.17-.1,37.14,26.32,66.52,59.95,66.65,33.53,.13,61.2-29.06,61.07-64.43-.13-37.75-25.85-66.19-60.05-66.39Z"/><path class="c" d="M1876.25,269.07v-23.89h43.75v230.24h-42.35c-3.15-7.46,.14-15.16-2.63-23.29-13.94,11.46-28.6,20.79-45.71,25.65-52.8,15.01-103.51-6.7-129.22-55.44-26.54-50.31-18-116.69,23.86-156.03,36.49-34.3,99.21-38.56,138.46-7.65,3.89,3.07,7.92,5.96,13.85,10.41Zm-.02,93.69c-.8-30.38-11.63-52.91-34.05-69.21-29.42-21.39-72.41-14.23-95.76,15.6-30.26,38.65-19.45,97.68,23.31,121.56,22.08,12.34,45.82,11.27,67.51-1.32,26.14-15.18,38.01-39.54,39-66.63Z"/><path class="c" d="M731.94,475.64h-44.08V131.69h182.39v41.8h-137.76v94.87h105.42v43.5h-105.97v163.78Z"/><path class="c" d="M928.63,244.15c12.51,0,24.23-.03,35.96,.03,2.26,.01,4.52,.39,7.34,.66v230.61h-43.3V244.15Z"/><path class="c" d="M921.72,170.71c.1-15.16,13.21-27.99,28.74-28.14,15.97-.15,29.46,13.15,29.23,28.83-.24,16.31-13.02,29.44-28.8,29.6-16.37,.16-29.29-13.24-29.17-30.29Z"/></svg>