<?xml version="1.0" encoding="UTF-8"?><svg id="a" xmlns="http://www.w3.org/2000/svg" viewBox="0 0 1920 771.41"><defs><style>.b{fill:#a0aec0;}</style></defs><path class="b" d="M649.7,689.28c22.49-13.39,33.72-48.75,74.51-37.47-9.07,15.32-16.19,27.35-23.3,39.38l1.53,3.88c28.45-8.78,56.77,15.83,81.17-.09,28.04,1.9,52.08,3.53,77.9,5.27,.55,9.32,.98,16.71,1.58,26.87-24.71,6.7-48.73,13.21-69.31,18.79-16.46,1-30.38-.71-42.64,3.02-65.68,19.96-133.11,25.6-200.77,20.94-53.95-3.72-108.58-9.54-160.88-22.55-110.34-27.45-193.43-95.08-256.32-188.77-46.86-69.8-81.44-144.74-100.47-227-7.27-31.44-18.27-62.11-28.93-92.65-9.73-27.9-1.02-49.1,32.15-72.08-2.62-25.92-1.29-27.89,24.53-36.38,21.02-6.91,24.55-16.55,15.29-44.8,10.54-9.79,21.63-20.08,34.08-31.64-6.66-7.07-13.6-11.74-16.51-18.21-3.4-7.57-6.98-18.55-3.9-24.79,6.15-12.45,20.46-13.19,31.56-7.83,6.68,3.23,12.41,12.42,14.49,20.04,2,7.34-1.24,16.11-2.56,27.54,19.14,1.65,35.97,3.09,53.04,4.56,1.39,8.9,2.45,15.68,3.88,24.83,9.55,2.79,19.35,6.48,29.48,8.4,13.91,2.62,24.25,7.28,35.45,18.46,14.09,14.07,35.95,20.76,55.06,29.28,18,8.02,37.5,12.88,54.95,21.83,11.56,5.93,20.67,16.63,33.64,27.5-32.62,16.48-56.09-11.58-85.49-4-1.66,7.99-5.59,16.7-4.87,25,5.13,58.99,8.62,118.29,17.49,176.76,23.26,153.32,169.2,288.09,324.2,305.93ZM104.19,482.53c-.14-.14-.29-.27-.43-.41,.24,.29,.49,.58,.73,.87-.1-.15-.2-.31-.3-.46ZM374.81,174.96l.44-.41,.51,.65-.95-.24Zm-110.34,308.75l.72,.13-1.19-.25c-.25-.94-.51-1.89-.54-2.02,.1,.2,.55,1.17,1.01,2.14Zm66.97,225.13c1.02,.11,2.05,.22,.96,.11,.94,0-.25,0-1.43,0-2.87-1.39-5.74-2.78-8.62-4.17l-7.05-4.24c-1.11-2.07-2.22-4.14-3.33-6.21-.76-.2-1.51-.4-2.83-.75,1.45,.11,2.32,.18,3.2,.25,1.11,2.09,2.22,4.17,3.34,6.26,2.38,1.52,4.76,3.04,7.15,4.55,2.87,1.4,5.75,2.8,8.62,4.2Zm97.53,25.54c3.8,.49,7.6,.99,11.4,1.48-.03-.85-.06-1.7-.09-2.55l-11.7,1.35-7.07-4.93c-.37,.58-.74,1.17-1.1,1.75,2.86,.97,5.71,1.93,8.57,2.9Zm-135.29-139.18l.33-1.38s-.59,.9-.59,.9c6.05,2.37,12.1,4.73,18.15,7.1,.24,1.81,.48,3.63,.07,.55,2.51,.58,1.02,.23-.47-.11-5.83-2.36-11.66-4.71-17.49-7.07ZM87.97,448.94h-.86s1.3-.28,1.3-.28c2.02,7.78,4.04,15.55,6.06,23.33,.26-.02,.53-.03,.79-.05-.41-.1-.82-.2-1.24-.3-2.02-7.57-4.04-15.14-6.05-22.71Zm286.85,195.52c1.88,1.1,3.75,2.2,5.63,3.3,.27-.78,.55-1.56,.82-2.35-2.27-.19-4.53-.37-6.8-.56-1.78-7.79,.14-19.57-19.3-11.79,8.32,4.82,13.98,8.11,19.65,11.39ZM112.95,496.16l-.76-.54,1.18,.13c8.14,12.96,16.27,25.91,24.41,38.87,8.45,13.86,16.89,27.73,25.34,41.59,1.97,1.34,3.94,2.67,5.91,4.01,2.2,5.68,2.91,12.82,6.84,16.78,20.22,20.43,40.93,40.43,62.28,59.67,4.82,4.35,12.9,5.08,19.48,7.48,.46-1.14,.92-2.29,1.37-3.43-25.12-22.14-50.24-44.28-75.37-66.42,.94-1.05,1.87-2.11,2.81-3.16-5.97-3.54-11.95-7.08-17.92-10.63-1.95-1.3-3.9-2.6-5.85-3.91-3.54-16.83-3.75-35.69-25.26-41.62-8.16-12.94-16.31-25.88-24.47-38.82Zm-55.07-131.28l-.57-.37,.96,.27c7.92,19.72,15.84,39.44,23.76,59.17,1.46-.62,2.91-1.24,4.37-1.86-5.39-17.53-10.77-35.07-16.16-52.6-.69-1.07-1.38-2.15-2.11-3.21-.75,1.07-1.5,2.13-2.25,3.2-2.67-1.53-5.33-3.06-8-4.6Zm291.78,351.68l-.68-.87,1.06,.46c.73,2.57,.81,6.89,2.3,7.44,22.72,8.5,45.62,16.51,68.48,24.63,.8-2.45,1.6-4.9,2.4-7.35-24.52-8.1-49.04-16.21-73.56-24.31Zm141.2,36.71c-7.3-.84-14.6-1.68-21.9-2.52-.06,.77-.12,1.54-.18,2.31,7.5,0,14.99,0,22.49,0,13.43,2.72,26.77,7.05,40.3,7.81,23.16,1.3,46.45,.36,69.68,.36-.02-2.65-.03-5.31-.05-7.96h-110.34Zm-242.41-194.6l.5,1.14-.11-.79c-4.92-8.97-7.99-19.98-15.16-26.45-11.83-10.66-9.91-20.62-1.76-32.74-8.59-2.26-15.3-4.03-21.94-5.78-5.1,4.32-9.73,8.23-15.56,13.16,7.39,12.81,14.44,25.04,22.2,38.49,10.12,4.12,20.98,8.54,31.83,12.96ZM100.93,222.05c4.84,2.55,9.67,5.1,15.81,8.34,8.03-3.58,16.56-7.38,27.57-12.29-9.64-7.17-16.37-12.16-24.75-18.4,20.67-11.8,24.2,6.13,29,11.33,21.23-3.74,39.12-6.59,56.88-10.08,28.94-5.69,58.04-10.81,86.6-18.05,21.29-5.4,28.2-17,25.23-37.86-44.83-2.91-88.47,3.45-135.87,18.43,12,1.77,19.09,2.82,26.17,3.86l-.11,5.45c-12.2,1-24.4,2-37.11,3.04v-8.95c-26.58,6.73-52.34,13.26-75.94,19.24,2.38,12.59,4.62,24.42,6.85,36.25-15.51-5.57-33.14-7.98-38.35-26.87-38.76,5.16-52.18,21.4-36.55,42.57,5.39-26.28,16.11-38.61,26.91-29.84-1.49,4.58-3.07,9.45-5.43,16.7,8.88,5.15,17.37,10.06,25.85,14.98,.15-2.24,.31-4.47,.46-6.71,8.92-3.71,17.84-7.43,26.76-11.14Zm41.52,176.36c3.06,10.21,6.12,20.41,9.96,33.25,6.42-5.23,9.7-7.9,14.82-12.07-9.46-7.83-17.32-14.33-25.18-20.84,4.04-4.25,8.08-8.51,10.93-11.51,2.38-8.33,4.4-15.4,6.41-22.48,1.67,.28,3.35,.57,5.02,.85,.82,8.88,1.63,17.76,2.66,28.91,8.15-6.23,13.63-10.42,21.6-16.51,7.03,10.07,13.43,19.23,20.64,29.55-8.04,4.92-12.84,7.85-14.46,8.85,6.99,16.22,13.17,30.58,20.64,47.92,8.06-.4,17.99-.88,27.91-1.37-.1-.6-.21-1.21-.31-1.81,8.32,2.18,16.64,4.36,28.14,7.37,5.31,8.8,11.87,19.65,18.61,30.81-7.74,6.21-12.43,9.99-17.69,14.21,11.88,21.64,50.51,15.36,49.88,49.8-2.55,2.67-5.71,5.98-9.95,10.42,37.74,17.33,75.39,33.32,98.19,70.33-3.87,2.6-6.91,4.64-10.22,6.86,6.9,1.26,12.91,2.37,17.64,3.23,.66,8.97,1.21,16.32,1.8,24.32,9.61,1.55,17.07,2.75,24.37,3.93,5.41,5.82,10.56,11.35,15.58,16.74,7.83-3.85,14.18-8.6,21.24-10.15,25.6-5.63,49.54-.33,73.25,10.78,15.11,7.08,31.92,10.85,48.27,14.85,5.98,1.46,12.84-.69,19.3-1.19,.11-1.51,.21-3.02,.32-4.53-21.45-7.3-43.05-14.17-64.26-22.1-9.73-3.64-20.79-7.39-27.54-14.57-12.24-13.02-27.02-19.01-43.12-24.72-24.89-8.82-47.12-21.88-62.02-45.23-17.25-27.01-35.14-53.62-53.47-79.9-3.72-5.33-10.82-8.19-15.98-12.64-8.71-7.5-17.11-15.36-26.28-23.64,2.66-5.02,5.21-9.83,7.28-13.71-8.13-30.71-16.02-60.45-24.26-91.56-4.9,3.24-8.44,5.58-11.98,7.93-1.14-.89-2.28-1.78-3.42-2.67,4.47-7.7,8.95-15.4,14.2-24.43-5.3-1.47-10.28-2.86-17.02-4.73,5.6-5,9.54-8.52,13.14-11.73-1.37-14.23-2.82-27.32-3.83-40.44-.97-12.58-1.48-25.2-2.35-40.62-10.16,6.06-15.54,9.27-20.92,12.49-2-.79-4-1.58-6-2.37,1.73-13.38,3.46-26.75,5.19-40.13,2.99-1.31,5.97-2.62,8.96-3.93,1.92,5.98,3.84,11.96,5.76,17.94,2.33-1.41,4.65-2.82,6.98-4.23-1.44-14.5-2.89-29-4.47-44.83-23.22,5.35-41.49,9.56-58.71,13.54-.67,5.43-1.11,8.98-1.61,13.07-8.71-1.56-15.59-2.79-18.43-3.3-26.98,12.54-50.63,23.53-76.83,35.71,2.71,7.08,6.58,17.22,11.95,31.3-9.98,4.44-19.48,8.66-31.99,14.23-2.79,3.88-7.6,10.56-12.28,17.07,10.23,17.71,20.52,18.11,41.6,2.1l.89,.17-1.31-.35c-.13-2.06-1.14-5.37-.26-5.98,13.4-9.34,25.57-22.81,44.72-14.84l-.57-.39c1.93,3.04,3.86,6.08,7.19,11.32-6.82-1.43-11.19-2.35-15.57-3.27-.97-.49-1.95-.98-2.15-1.08,.3,.08,1.44,.39,2.58,.7,3.64,5.12,7.27,10.23,13.16,18.52-10.05-2.25-15.93-3.57-22.59-5.07-4.69,9.49-9.1,18.41-13.68,27.67-3.93,.98-8.17,2.04-11.16,2.79-.96,12.13-1.79,22.66-2.78,35.28-19.13-9.83-17.07-21.96-10.12-34.92-3.66-3.43-6.57-6.17-11-10.33-5.51,6.28-10.31,11.76-16.64,18.98,6.99,5.19,12.56,9.33,18.14,13.47-1.4,1.41-2.81,2.81-4.21,4.22,5.9,6.23,11.81,12.46,17.71,18.69Zm65.72,81.94c1.21-1.22,2.43-2.44,3.64-3.67-7.22-12.06-14.45-24.11-18.33-30.6-16.39-3.05-28.88-5.37-44.17-8.22,12.4,29.44,40.92,27.92,58.86,42.48Zm-63.56-347.4l.24,3.36h38.91c2.04,3.59,6.49,11.43,10.93,19.26,2.18-1.25,4.35-2.5,6.53-3.75,3.67-10.56,7.33-21.12,12.63-36.38-25.58,6.47-47.41,11.99-69.24,17.51Zm89.13,449.88c-.76,3.1-1.52,6.2-2.28,9.3,14.72,9.04,29.71,16.86,48.15,9.59,.45-1.7,.9-3.39,1.34-5.09-15.74-4.6-31.48-9.2-47.22-13.8ZM171.01,118.17c2.03-1.11,4.07-2.23,6.1-3.34,.62-5.81,1.24-11.61,2.06-19.18-9.66-2.36-18.23-4.46-26.8-6.55-1.1,1.89-2.21,3.79-3.31,5.68,7.32,7.8,14.63,15.59,21.95,23.39Zm485.67,586.77c-.11,2.41-.23,4.83-.34,7.24,18.83,1.06,37.65,2.11,56.48,3.17l.3-6.56c-18.81-1.28-37.62-2.57-56.43-3.85ZM123.89,19.55c-12.38-17.1-14.22-17-24.89,0h24.89Zm400.52,698.1c-.61-8.19-.96-12.87-1.58-21.33-8.28,6.02-13.43,9.76-20.25,14.71,7.72,2.34,12.75,3.86,21.84,6.62ZM130.51,268.37l-3.77-6.02c-2.81,2.5-5.62,5.01-8.44,7.51l3.31,4.14c2.97-1.88,5.93-3.76,8.9-5.64Zm191.31,321.76c-.46,.8-.92,1.6-1.38,2.39,2.34,1.39,4.69,2.77,7.03,4.16,.48-.84,.97-1.68,1.45-2.52-2.37-1.35-4.74-2.69-7.11-4.04Zm126.8,159.28c.2-.62,.39-1.24,.59-1.85h-8.29c0,.43-.01,.87-.02,1.3,2.57,.18,5.15,.37,7.72,.55Zm-166.54-192.46c-.32,.81-.64,1.62-.96,2.42,1.59,.7,3.19,1.41,4.78,2.11,.23-.62,.47-1.24,.7-1.86-1.51-.89-3.02-1.78-4.52-2.67ZM144.18,109.51c0-.61,0-1.22,0-1.84h-6.72c0,.61,0,1.22,0,1.84h6.72Zm-61.96,164.55c1.9-.73,.95-.36,0,0,1.03,.19,2.05,.38,0,0Z"/><path class="b" d="M1597.02,69.34c27.93-26.06,62.67-31.78,88.08-53.19,2.39,.92,4.79,1.84,7.18,2.76,2.04,10.04,5.78,20.07,5.84,30.13,.47,86.77,.24,173.54,.34,260.3,0,8.17,.86,16.35,1.56,28.79,33.49-24.14,62.31-46.58,90.75-76.86-14.54-5.6-24.58-9.47-36.98-14.25v-16h143.55c1.88,6.24,3.41,8.9,3.27,11.47-.17,3.29-1.69,6.5-3.37,12.36-50.84,1.55-90.31,26.42-124.87,65.06,27.63,46.23,56.68,91.14,102.42,121.39,12.08,7.99,29.06,8.58,45.22,12.95v20.76c-29.6,1.72-58.14,4.18-86.69,4.39-6.19,.05-13.93-6.82-18.41-12.51-23.55-29.88-46.33-60.37-69.27-90.74-4.16-5.51-7.81-11.4-11.28-16.51-27.58,5.54-35.75,14.89-35.91,39.56-.03,4.23,.02,8.47,.22,12.7,1.53,31.78,4.49,35.38,36.23,40.75,11.25,1.91,21.2,3.82,17.39,22.77h-140.76c-5.15-13.71,2.59-19.37,12.8-22.54,14.48-4.5,19.47-15.19,20.58-28.81,.63-7.73,1.17-15.49,1.18-23.24,.08-86.79,.06-173.59,.01-260.38,0-6.34-.77-12.69-.72-19.03,.15-19.89-8.41-33.6-27.39-40.75-5.66-2.13-10.76-5.75-20.96-11.34Z"/><path class="b" d="M636.76,250.79c34.68-2.16,67.14-4.17,99.46-6.18,4.56-16.17,7.95-28.2,12.06-42.76,7.17,.47,14.04,.91,20.95,1.36-2.07,43.84-4.02,85.08-6.03,127.78-5.8,.45-11.02,.85-16.83,1.3-2.4-5.53-4.7-9.8-6.16-14.35-10.27-32.03-15.75-36.52-49.55-37.63-17.44-.57-34.91-.1-55.66-.1,0,16.73,0,32.03,0,47.33,0,28.92-.1,57.85,.03,86.77,.12,26.74,3.61,30.88,30.48,36.47,6.89,1.43,13.97,1.95,20.83,3.51,9.82,2.23,15.02,7.51,8.9,21.18h-158.93c-.8-2.43-2.51-7.65-4.48-13.69,6.15-2.52,9.8-4.72,13.74-5.5,17.79-3.52,26.46-15.21,28.89-32.12,1.5-10.43,2.58-21.03,2.61-31.55,.21-83.95-.24-167.9,.31-251.84,.18-27.71-6.4-50.07-34.57-61.47-8.56-3.46-13.94-9.9-7.49-21.92h286.29c-2.62,29.48-5.08,57.14-7.49,84.17-14.25,6.62-20.39-.9-23.94-10.93-11.09-31.36-33.79-42.65-65.76-41.4-28.61,1.12-57.29,.24-87.65,.24V250.79Z"/><path class="b" d="M1218.33,455.7c-10.43,4.45-20.35,10.21-31.04,12.91-19.58,4.95-39.53,10.68-59.49,11.36-27.39,.94-47.69-16.27-54.96-41-7.71-26.25-1.51-50.07,23.89-63.62,26.33-14.04,55.83-22.17,84.1-32.48,11.56-4.21,23.52-7.34,36.45-11.31,0-16.63,1.17-30.71-.28-44.52-2.05-19.48-13.49-29.72-32.34-34.01-18.5-4.21-27.68,6.45-34.85,20.36-8.64,16.75-20.35,29.66-40.48,28.56-7.32-.4-18.17-4.9-20.51-10.44-2.9-6.87-1.45-18.8,3.02-25,23.87-33.11,106.56-54.83,144.01-39.33,23.57,9.76,31.57,29.52,31.83,52.62,.42,36.6-1.03,73.22-1.18,109.84-.06,13.59,1.3,27.19,2.08,42.09h43.39c9.77,12.42,3.15,19.49-6.18,26.39-35.64,26.33-55.14,26.36-87.46-2.42Zm-1.61-94.73c-29.78,3.21-55.47,8.15-77.06,25.6-10.89,8.81-15.18,21.96-9.88,34.14,4,9.19,12.89,20.37,21.64,22.56,23.02,5.78,45.88,2.16,65.3-15.19v-67.12Z"/><path class="b" d="M873.23,76.46c4.83-9.1,6.09-15.93,9.85-17.84,26.57-13.52,53.65-26.04,83.92-40.48,2.48,11.23,5.37,18.26,5.38,25.29,.17,118.41-.03,236.81-.12,355.22-.03,43.01,2,45.51,43.35,55.73,3.34,.83,6.43,2.64,9.41,3.9,5.37,10.17,3.21,18.64-7.89,18.87-42.71,.9-85.45,.36-128.53,.36-7.08-12.28-1.02-19.08,9.66-22.64,16.2-5.4,21.16-17.52,21.18-32.77,.11-96.57-.03-193.14,.12-289.71,.04-29.04-12.79-48.5-46.34-55.95Z"/><path class="b" d="M1366.39,466.47v-62.54l5.46-3.76c5.77,4.46,13.2,7.81,17.04,13.56,21.62,32.36,52.77,39.98,88.75,35.72,12.63-1.5,23.22-6.79,26.8-20.3,3.68-13.9-1.05-25.67-12.72-33.15-12.98-8.31-27.09-14.86-40.75-22.11-14.92-7.91-30.63-14.61-44.69-23.82-46.53-30.49-43.36-94.68,6.7-118.27,40.34-19.01,82.04-13.31,124.62-.67,4.06,20.2,7.88,39.22,12.15,60.48-8.93,1.5-15.36,2.58-20.7,3.47-8.91-10.1-15.68-19.2-23.87-26.78-18.56-17.18-40.92-22.52-64.62-14.27-7.89,2.74-17.76,11.68-18.86,18.96-1.3,8.66,3.4,21.29,9.98,27.33,9.51,8.74,22.96,13.27,34.87,19.3,18.21,9.22,36.96,17.45,54.72,27.45,26.37,14.85,35.29,38.86,32.59,68.06-2.64,28.42-19.16,46.21-44.39,56.68-30.46,12.64-62.28,10.32-93.8,6.04-16.4-2.23-32.4-7.39-49.28-11.39Z"/><path class="b" d="M192.56,356.78c25.36-2.12,30.95,15.73,44.69,30.5-7.92,5.87-14.62,10.84-25.19,18.67-7.31-18.45-13.03-32.85-19.5-49.17Z"/><path class="b" d="M276.15,397.55c-19.03-14.09-17.3-31.32-14.35-50.72,18.98,15.27,22.84,28.74,14.35,50.72Z"/><path class="b" d="M194.15,301.84c-5.6-6.31-11.2-12.62-16.8-18.93,22.55,1.44,25.56,6.68,16.23,18.54l.57,.39Z"/><path class="b" d="M388.66,565.18c4.36,6.93,8.72,13.87,13.08,20.8-1.83,1.15-3.66,2.3-5.49,3.44-4.41-6.9-8.82-13.8-13.23-20.7l5.64-3.54Z"/><path class="b" d="M325.7,470.89c-1.67-3.47-3.34-6.94-5.01-10.41,1.48-.63,2.96-1.26,4.44-1.88,1.39,3.54,2.78,7.08,4.17,10.61-1.2,.56-2.4,1.12-3.6,1.68Z"/><path class="b" d="M140.31,183.66c5.04,1.38,10.08,2.77,15.11,4.15-.14,1.68-.28,3.36-.41,5.05-3.48,.68-7,2.01-10.44,1.84-3.32-.16-6.57-1.86-9.85-2.88,1.86-2.72,3.73-5.44,5.59-8.16Z"/><path class="b" d="M284.27,156.59c-3.37,1.73-6.73,3.46-10.1,5.18l-2.04-3.28c3.36-2.2,6.71-4.39,10.07-6.59,.69,1.56,1.38,3.12,2.07,4.69Z"/><path class="b" d="M65.57,368.95c1.66,.02,3.33,.03,4.99,.05-1.66-.02-3.33-.03-4.99-.05Z"/></svg>