<?xml version="1.0" encoding="UTF-8"?><svg id="a" xmlns="http://www.w3.org/2000/svg" viewBox="0 0 1920 467.1"><defs><style>.b{fill:#a0aec0;}</style></defs><g><path class="b" d="M116.9,115.52c-.77-3.01-1.32-4.1-1.29-5.17,.39-17.35,.19-34.75,1.49-52.04,1.1-14.66,8.75-26.38,22.72-31.62,12.69-4.76,26.01-8.46,39.37-10.67,33.42-5.52,66.95-4.3,100.32,1.31,26.01,4.37,46.98,22.64,52.06,45.75,.97,4.4,1.15,9.03,1.16,13.56,.1,32.49-.76,65,.32,97.46,.91,27.35-19.46,58.9-58.69,58.72-34.48-.16-68.97,.08-103.45-.08-23.9-.11-42.17,10.32-55.91,29.26-7.54,10.39-11.71,22.07-11.69,35.09,.02,13.68-.02,27.36-.04,41.04,0,3.08,0,6.17,0,8.75-1.6,1.05-2.3,1.93-2.99,1.91-15.9-.32-32.02,.79-47.64-1.52-19.4-2.86-30.94-16.99-38.66-34.14-7.93-17.63-11.17-36.54-13.05-55.51-2.54-25.73,.28-51.21,7.09-76.19,9.1-33.37,34.24-52.78,68.85-52.89,45.31-.15,90.63-.08,135.94-.11,3.35,0,6.7,0,10.77,0v-12.92H116.9Zm46.52-28.32c10.31,.13,20.05-9.79,19.97-20.35-.09-10.75-9.48-20.13-20.14-20.12-10.43,0-19.58,8.92-19.91,19.39-.35,11.22,8.9,20.94,20.08,21.09Z"/><path class="b" d="M225.1,349.72v12.69c35.51,1.29,70.66-.22,105.89,.75,.62,2.02,1.36,3.33,1.37,4.65,.08,13.39,.79,26.83-.14,40.16-1.3,18.69-12.37,31.3-28.16,40.19-16.13,9.08-33.79,13.5-51.86,16.5-36.84,6.11-72.06,.74-105.4-15.97-6-3.01-11.57-7.36-16.42-12.04-8.94-8.63-13.61-19.26-13.51-32.09,.28-35.05,.51-70.1,.09-105.14-.32-26.69,24.94-53.66,52.89-52.96,33.6,.83,67.25,.54,100.86-.07,10.09-.18,20.57-1.76,30.1-4.98,26.99-9.13,45.32-35.7,45.57-64.1,.11-12.54,0-25.07,.06-37.61,.01-3.07,.28-6.13,.4-8.64,1.19-.85,1.65-1.46,2.1-1.46,15.33,.15,30.73-.5,45.96,.79,16.26,1.39,27.4,11.17,35.13,25.41,7.47,13.75,10.9,28.68,14.17,43.72,9.09,41.76,5.39,81.99-13.93,120.56-9.85,19.66-25.38,29.09-47.22,29.03-48.72-.13-97.45-.09-146.17-.07-3.61,0-7.22,.42-11.77,.7Zm59.57,40.55c-11.25,.12-19.15,8.61-19.1,20.53,.05,11.57,8.47,20.45,19.39,20.45,11.52,0,20.39-9.07,20.29-20.73-.1-11.78-8.83-20.38-20.58-20.26Z"/><path class="b" d="M577.59,159.21c4.3-3.82,8.77-8.73,14.11-12.36,31.4-21.32,66.37-27.96,103.45-22.83,20.83,2.89,36.73,14.75,48.13,32.43,19.25,29.85,23.67,63.01,21.31,97.55-.97,14.28-4.1,28.18-9.91,41.35-19.62,44.46-59.93,63.43-106.61,49.75-8.68-2.55-16.87-6.79-25.26-10.32-2.55-1.07-5-2.38-9-4.31v126.66c-13.08-4.63-24.41-8.64-36.23-12.82V159.21Zm36.39,144.37c13.19,9.15,26.78,15.71,41.94,17.88,19.27,2.76,37.68,.17,49.88-16.89,5.81-8.12,9.97-18,12.61-27.69,5.83-21.42,4.86-43.47,2.96-65.38-1.24-14.28-4.22-28.18-11.3-40.88-7.25-13-17.9-21.32-33.01-22.88-19.57-2.03-37.96,2.36-55.36,11.17-2.94,1.49-5.4,3.91-7.73,5.65v139.03Z"/><path class="b" d="M949.42,332.61c-3.7,1.29-6.34,2.15-8.93,3.13-22.65,8.52-45.97,12.77-70.25,12.21-38.48-.89-67.26-29.76-67.32-68.18-.07-44.74-.03-89.49,0-134.23,0-3.36,.38-6.73,.64-11.03,11.62-3.98,23.03-7.89,35.8-12.26,.47,5.05,1.07,8.57,1.08,12.08,.06,45.03,.01,90.06,.08,135.09,0,5.4-.08,10.91,.95,16.17,3.73,19,18.65,32.79,38.89,35.79,24.68,3.66,46.73-3.27,67.68-18.07,0-28.94,0-58.25,0-87.55s0-57.99,0-87.82h36.43c.38,3.55,1.03,6.83,1.04,10.12,.06,59.56,.43,119.13-.17,178.69-.21,21.29-2.21,42.63-4.49,63.82-2.68,24.94-15.74,43.43-37.76,55.67-23.42,13.01-48.5,19.09-76.31,19.53-2.08-7.28-4.07-14.24-6.36-22.26,3.59-.9,6.45-1.66,9.34-2.34,14.65-3.45,29.76-5.59,43.84-10.63,20.77-7.44,32.83-22.95,34.41-45.55,.77-11.07,1.29-22.15,1.8-33.24,.13-2.73-.23-5.48-.41-9.11Z"/><path class="b" d="M1204.09,177.9v165.8h-35.03c-2.46-6.03-3.57-315.3-1.09-332.39,10.99-3.51,22.53-7.2,35.38-11.31,.45,4.3,1.13,7.77,1.14,11.24,.07,42.16,.05,84.33,.05,126.49,0,3.32,0,6.63,0,11.78,4.35-2.41,7.01-3.79,9.58-5.33,20.29-12.11,42.1-18.25,65.87-17.82,30.73,.56,54.58,19.23,61.48,49.22,1.33,5.77,1.96,11.83,1.98,17.76,.16,47.01,.1,94.02,.08,141.02,0,2.79-.3,5.57-.5,9.15h-35.22c-.3-3.52-.86-7.06-.87-10.6-.06-41.03,.31-82.06-.28-123.07-.15-10.64-1.99-21.65-5.29-31.76-4.84-14.81-15.5-24.66-31.73-26.01-6.37-.53-13.12,.4-19.36,1.98-16.52,4.18-30.94,12.77-46.18,23.85Z"/><path class="b" d="M1574.55,230.36c-.95,31.58-7.03,58.39-24.7,81.63-16.43,21.61-37.86,33.76-65.12,36.09-27.08,2.31-51.54-3.35-72.22-21.69-12.17-10.79-21-24.16-26.67-39.24-13.22-35.16-15.06-70.81,.04-105.78,28.41-65.78,99.08-71.62,140.79-44.8,27.05,17.39,41.22,43.39,46,74.75,1.11,7.29,1.46,14.71,1.88,19.04Zm-39.54,4.92c-.67-.09-1.35-.17-2.02-.26,0-6.26,.39-12.55-.08-18.77-1.21-16.13-5.7-31.29-14.75-44.89-20.48-30.8-67.15-31.49-87.67-.71-5.38,8.07-8.95,17.84-11.31,27.33-5,20.07-4.85,40.6-1.7,61.02,2.36,15.28,7.09,29.67,15.13,43.16,19.13,32.07,71.12,30.29,88.38-4.2,2.66-5.31,5.5-10.83,6.6-16.57,2.95-15.28,5-30.73,7.41-46.12Z"/><path class="b" d="M1606.55,158.07c21.08-16.28,44.64-28.25,71.64-33.05,17.81-3.16,35.59-4.87,53.34-.18,5.75,1.52,11.49,3.45,16.83,6.03,21.19,10.25,32.51,27.16,32.57,50.9,.14,51.28,.06,102.57,.02,153.85,0,2.48-.51,4.95-.85,8.03h-35.91c-.28-4.04-.73-7.63-.74-11.22-.05-43.88-.02-87.75-.06-131.63,0-4.83,.13-9.75-.65-14.49-3.82-23.13-20.56-37.61-44.03-39.03-17.29-1.04-33.4,2.38-48.41,11.01-1.48,.85-2.96,1.72-4.35,2.71-.91,.65-1.67,1.52-3.35,3.1v179.34h-35.4c-2.47-5.94-3.23-173.69-.68-185.39Z"/><path class="b" d="M1048.33,67.63c12.69-4.49,23.87-8.45,36.73-13.01V126.98h40.04v24.07h-39.25c-.24,4.2-.56,7.24-.56,10.28-.03,42.75-.02,85.49-.02,128.24,0,.85,0,1.71,.01,2.56,.29,21.45,8.86,31.3,29.99,34.44,3.03,.45,6.08,.78,9.88,1.26v18.29c-2.26,.56-4.11,1.34-6,1.44-13.81,.75-27.4-.45-40.12-6.29-19.42-8.91-30.14-23.99-30.26-45.58-.25-44.17-.12-88.34-.15-132.51,0-3.62,0-7.23,0-11.57-8.68-.39-16.2-.73-24.42-1.11v-22.76c7.9-.4,15.41-.78,24.13-1.22v-58.89Z"/></g><g><path class="b" d="M1834.11,55.67v-4.81h33.58v4.81h-14.08v39.97h-5.42V55.67h-14.08Z"/><path class="b" d="M1876.1,50.86h6.47l15.22,37.17h.52l15.22-37.17h6.47v44.78h-5.07V61.62h-.44l-13.99,34.02h-4.9l-13.99-34.02h-.44v34.02h-5.07V50.86Z"/></g></svg>