<?xml version="1.0" encoding="UTF-8"?><svg id="a" xmlns="http://www.w3.org/2000/svg" viewBox="0 0 1920 230.86"><defs><style>.b{fill:#a0aec0;}</style></defs><path class="b" d="M906.65,68.06h30.76c8.66,30.14,17.39,60.52,26.12,90.9,.5-.12,1-.23,1.5-.35,9.26-30.1,18.52-60.21,27.81-90.43h30.07c9.4,30.53,18.67,60.64,27.95,90.74,.51-.05,1.01-.09,1.52-.14,8.48-29.68,16.96-59.37,25.74-90.09h33.07c-14.43,45.8-28.7,91.05-43.3,137.39-1.67,.52-3.98,1.76-6.35,1.88-6.27,.3-12.69,.81-18.81-.2-2.96-.49-6.79-3.72-7.81-6.57-5.19-14.58-9.68-29.42-14.22-44.22-3.48-11.34-6.69-22.77-10.2-34.79-1.27-.34-2.92-.77-4.2-1.12-9.31,29.42-18.42,58.23-27.36,86.51h-30.29c-2.91-9.33-5.61-18.38-8.56-27.34-3.28-10-6.82-19.92-10.17-29.9-1.5-4.45-2.85-8.96-4.19-13.46-4.28-14.32-8.51-28.65-12.79-42.96-2.18-7.3-4.47-14.57-6.59-21.89-.28-.97,.14-2.14,.3-3.96Z"/><path class="b" d="M1468.93,83.13V12.23h30.61V207.58h-29.75c-.37-5.95-.72-11.47-1.18-18.86-12.28,16.81-28.95,22.11-46.14,22.39-22.2,.36-41.47-7.98-55.7-26.63-9.73-12.75-15.64-26.72-16.75-42.34-1.13-15.82,3.03-30.53,11.58-44.33,7.4-11.94,16.85-21.11,29.24-27.18,5.32-2.61,11.22-5.08,17.01-5.49,12.78-.89,26.05-2.65,38.09,3.24,7.83,3.83,14.8,9.4,22.99,14.74Zm-43.3,11.35c-25.07-1.94-43.56,19.23-43.6,42.47-.05,29.4,21.45,44.61,43.63,44.3,24.25-.34,42.99-16.12,43.63-44.15,.48-20.79-17.34-44.68-43.66-42.62Z"/><path class="b" d="M280.03,172.62c-.74,3.43-1.48,6.86-2.56,11.86-5.27,6.51-10.9,14.64-17.72,21.6-10.4,10.62-23.12,17.25-37.71,21.25-19.27,5.28-38.64,3.7-57.61,1.24-13.51-1.76-25.78-8.76-37.68-16.96-16.27-11.22-27.77-27.01-43.01-38.92-7.07-5.53-14.63-10.23-23.93-10.55-9.39-.32-19.21-1.91-28.08,.23-8.89,2.14-16.87,8.14-25.16,12.61-1.88,1.02-3.38,2.74-6.57,5.4,2.06-6.29,2.55-11.59,5.25-15.27,6.95-9.47,13.9-19.38,22.7-26.96,9.26-7.97,20.93-12.23,33-16.07,16.15-5.14,32.11-3.14,48.09-3,7.58,.07,15.26,3.79,22.65,6.52,6.18,2.28,12.6,4.71,17.87,8.51,9.74,7.02,18.95,14.83,27.96,22.78,9.03,7.98,16.4,18.6,26.59,24.31,12.72,7.12,27.14,10.68,42.86,7.01,12.21-2.85,22.65-7.61,33.06-15.62Z"/><path class="b" d="M98.55,62.08C115.36,19.29,145.55-1.15,189.81,.05c5.65,.35,11.3,.86,16.96,1.02,15.88,.43,30.41,5.56,42.67,15.14,15.73,12.3,30.38,25.98,45.54,39.01,11.01,9.47,23.28,15.67,38.33,14.52,1.47-.11,2.97-.14,4.43,.01,14.09,1.44,25.38-4.95,36.19-12.8,1.51-1.1,3.26-1.87,5.5-2.17-5.1,16.61-15.04,29.53-28.6,39.93-13.47,10.34-29.2,16.1-45.53,17.42-16.56,1.34-33.41-1.03-46.17-1.61-11.94-5.86-20.58-9.05-28.02-14.03-8.48-5.68-16-12.82-23.73-19.57-10.06-8.78-19.13-18.96-30.09-26.4-11.59-7.87-25.78-12.47-39.67-9.22-10.56,2.47-22.37,4.55-30.24,14.09-2,2.43-5.12,3.93-8.83,6.68Z"/><path class="b" d="M720.54,83.2c.28-4.66,.57-9.46,.9-14.88h29.52V207.64h-29.35c-.37-5.51-.72-10.71-1.12-16.76-5.42,4.14-9.73,8.28-14.78,11.12-13.57,7.64-27.94,11.16-43.76,8.07-13.61-2.65-26.05-7.32-35.92-17.24-17.73-17.8-26.19-38.64-23.39-64.46,2.3-21.23,12.67-37.28,28.01-50.34,8.81-7.5,19.57-12.9,31.84-13.25,12.14-.34,24.62-1.73,35.88,3.77,7.53,3.68,14.15,9.24,22.17,14.63Zm-43.32,11.27c-25.8-2.04-43.78,20.41-43.55,42.75,.29,28,20.11,44.18,43.44,44.04,23.87-.15,42.82-15.29,44.02-43.73,.85-20.05-17.18-45.33-43.9-43.05Z"/><path class="b" d="M1325.74,207.67h-29.49c-.32-3.17-.84-6.03-.85-8.89-.07-25.7,.03-51.4-.08-77.09-.06-14.45-9.63-24.85-23.84-27.08-9.66-1.51-19.33-1.74-27.07,4.51-5.16,4.17-9.79,10.09-12.24,16.2-2.5,6.23-2.68,13.63-2.77,20.53-.29,21.44,0,42.89-.12,64.33-.01,2.45-1.24,4.9-2.02,7.77-8.48,0-16.58,.26-24.66-.09-5.13-.23-5.04-4.44-5.04-8.28,.01-41.6,0-83.19,.02-124.79,0-1.81,.2-3.62,.36-6.26h30.23c.64,3.09,1.36,6.55,2.3,11.07,1.74-.85,3.36-1.25,4.43-2.23,16.42-15.13,35.59-14.98,55.69-10.34,17.54,4.04,26.71,16.5,32.34,32.23,1.92,5.37,3.24,11.27,3.3,16.94,.32,28.1,.14,56.2,.09,84.3,0,2.17-.35,4.34-.59,7.17Z"/><path class="b" d="M1662.64,101.73c-8.48,4.61-16.58,9.01-24.49,13.31-19.41-27.05-49.8-24.75-65.6-10.13-20,18.5-19.74,46.27-.34,64.64,16.36,15.5,48.49,16.35,66.15-9.75,7.41,3.81,15,7.7,23.04,11.83,2.19,3.91,2.61,7.82-1.61,11.37-8.26,6.95-16.29,14.21-24.78,20.86-2.58,2.02-6.29,3-9.64,3.57-9.23,1.58-18.66,4.35-27.78,3.65-16.85-1.29-33.58-5.52-45.91-18.05-7.23-7.35-12.82-16.53-18.16-25.47-5.51-9.22-7.52-19.57-7.53-30.5-.02-17.64,7.09-32.3,17.13-46.11,7.28-10.02,17.34-16.43,28.09-21.67,5.14-2.5,11.19-3.97,16.91-4.25,13.37-.66,26.98-2.05,39.86,3.27,13.86,5.73,25.64,14.3,33.98,26.97,1.05,1.59,.49,4.23,.69,6.44Z"/><path class="b" d="M1915.43,94.09c-8.45,4.6-16.45,8.95-23.17,12.61-4.78-4.54-8.38-7.97-11.99-11.39-10.63-3.03-20.7-4.7-30.85,.44-1.14,1.39-2.3,2.77-3.42,4.18-3.25,4.1-2.39,10.63,1.8,13.67,8.84,6.41,19.17,8.82,29.48,11.68,17.74,4.91,33.84,12.44,41.32,31.26,3.88,9.76-.77,28.07-8.67,36.96-8.59,9.66-19.4,12.98-31.59,16-13.42,3.33-25.9,.75-38.16-2.06-14.91-3.41-25.61-13.89-33.91-28.65,8.15-5.2,16.26-10.38,25.01-15.97,4.11,4.38,8.11,8.94,12.43,13.19,8.29,8.16,30.99,8.46,39.64,1.13,7.7-6.53,4.77-17.09-6.22-21.02-12.13-4.34-24.48-8.08-36.64-12.34-12.35-4.32-22.98-12.07-26.53-24.53-3.93-13.78-2.43-27.78,8.67-39.35,9.25-9.63,20.17-14.63,33.27-15.08,11.2-.39,22.49-1.22,33.17,3.51,10.66,4.72,19.1,12.14,25.82,21.55,.65,.9,.35,2.48,.55,4.21Z"/><path class="b" d="M1786.89,93.69c-8.58,4.73-16.69,9.21-24.93,13.75-11.53-14.76-25.1-18.44-43.74-10.16-.89,3.32-2.33,8.74-3.67,13.72,11.17,7.94,22.12,11.25,33.46,14.31,14.9,4.02,30.07,9.37,37.86,24.02,8.8,16.55,6.62,32.17-8.26,47.5-7.14,7.36-16.78,9.62-26.61,12.34-13.1,3.63-25.42,1.18-37.69-1.2-13.38-2.59-24.2-10.46-31.88-22.09-1.2-1.81-2.31-3.69-4.41-7.07,8.24-5.26,16.47-10.51,25.32-16.16,1.6,1.85,3.37,3.59,4.79,5.58,5.82,8.16,13.3,13.79,23.62,13.62,6.42-.11,13.44-.3,19.06-2.9,8.31-3.85,9.27-8.96,5.38-20.08-10.01-3.43-21.48-7.27-32.88-11.3-13.84-4.89-28.49-9.12-35.28-23.87-2.73-5.92-4.47-13.07-4.08-19.51,1.44-23.54,23.21-39.26,44.04-39.49,11.42-.13,23.15-1.41,33.65,3.9,10.83,5.47,21.06,12.19,26.25,25.07Z"/><path class="b" d="M588,207.98c-15.12,.66-29.76,1.73-43.77-3.41-7.6-2.79-12.36-9-16.12-16.2-4.78-9.14-3.97-18.8-3.92-28.49,.1-18.31,.1-36.61,.1-54.92,0-1.63-.31-3.26-.61-6.17h-24.57v-31.08h24.54V29.77c10.42-2.91,20.03-5.6,31.33-8.76v46.73h33.18v30.47h-32.67c-.23,3.03-.53,5.17-.54,7.32-.04,18.49,.14,36.98-.11,55.47-.09,6.35,.49,12.11,6.85,17.27,7.6,.5,16.41,1.07,26.31,1.71v28Z"/><path class="b" d="M883.1,207.37h-29.87V4.36h29.87V207.37Z"/><path class="b" d="M785.84,68.23c10.23,0,19.87-.2,29.47,.26,1.17,.06,3.09,3.67,3.1,5.64,.18,41.92,.19,83.85,.02,125.78-.01,2.66-1.81,5.31-2.83,8.1-8.51,0-16.25,.15-23.98-.05-4.85-.12-5.82-3.5-5.81-7.7,.06-25.49,.03-50.98,.02-76.46,0-15.88,0-31.77,0-47.65v-7.91Z"/><path class="b" d="M1133.6,68.18h29.76V207.56h-29.76V68.18Z"/><path class="b" d="M1167.57,28.23c-.26,12.5-6.98,18.55-20.21,18.19-11.83-.32-18.76-7.71-18.52-19.74,.2-10.13,9.89-19.31,20.3-18.79,10.02,.5,19.41,8.4,18.43,20.33Z"/><path class="b" d="M801.7,46.47c-12.19,1.1-19.78-10.82-19.56-19.3,.23-8.93,9.55-19.98,20.6-19.41,9.41,.49,20.32,10.96,20.1,19.88-.25,10.24-10.12,19.03-21.14,18.83Z"/></svg>