<?xml version="1.0" encoding="UTF-8"?><svg id="a" xmlns="http://www.w3.org/2000/svg" viewBox="0 0 1920 476.6"><defs><style>.b{fill:#a0aec0;}</style></defs><path class="b" d="M767.73,327.47h-53.45c-10.62-36.93-21.19-73.71-31.77-110.48-.42-.03-.85-.07-1.27-.1-10.66,36.67-21.31,73.34-31.85,109.62-5.48,1.67-46.72,1.94-54.38,.35-17.57-58.91-35.28-118.27-53.11-178.07,1.97-.69,3.29-1.55,4.61-1.55,14.93-.06,29.87,0,44.8,.07,.61,0,1.22,.34,2.76,.81,5.66,19.75,10.21,40.29,15.39,60.66,5.2,20.44,10.16,40.93,15.58,62.8,.96-2.6,1.58-3.97,1.97-5.4,9.84-36.43,19.65-72.87,29.5-109.29,.82-3.04,1.89-6.02,2.94-9.33h45.03c6.07,20.54,11.15,41.17,16.7,61.68,5.51,20.35,10.91,40.73,17.47,61.18,10.24-40.77,20.48-81.55,30.63-121.93,5.86-1.77,45.65-1.9,52.21-.2-.41,1.94-.68,3.97-1.26,5.91-16.65,55.55-33.33,111.08-50.04,166.62-.66,2.2-1.58,4.32-2.44,6.65Z"/><path class="b" d="M1062.87,312.11c-.36,5.37-.66,9.97-.95,14.33-5.35,1.77-37.69,2.04-44.96,.4-.2-2.02-.62-4.27-.62-6.52-.03-77.86-.03-155.71,0-233.57,0-2.28,.33-4.56,.48-6.63,5.39-1.46,40.21-1.7,47.66-.36,.22,2.48,.67,5.16,.67,7.84,.06,22.61,.03,45.22,.04,67.83,0,2.26,.12,4.51,.22,7.88,2.46-1.82,3.98-2.84,5.39-4,17.42-14.37,37.62-18.52,59.46-15.59,37.43,5.03,62.59,31,70.47,68.83,4.86,23.34,3.73,46.43-6.15,68.33-14.61,32.37-40.11,49.26-75.62,51.09-20.36,1.05-38.28-4.84-53.59-18.43-.45-.4-1.06-.61-2.5-1.41Zm1.27-74.9c0,2.77-.24,5.56,.04,8.3,2.39,23.49,18.36,45.62,48.53,43.45,17.31-1.25,29.73-9.94,36.54-25.81,2.48-5.77,3.84-12.21,4.65-18.48,1.6-12.32-.39-24.32-6.16-35.36-8.15-15.59-21.43-23.4-38.92-23.34-17.44,.07-30.71,7.72-38.86,23.43-4.51,8.7-6.25,18.06-5.82,27.81Z"/><path class="b" d="M1269.04,311.43v78.81c-5.23,2.05-40.75,2.39-47.98,.58-.23-2.31-.69-4.81-.69-7.3-.04-76.14-.04-152.27,0-228.41,0-2.28,.42-4.57,.62-6.62,5.64-1.8,38.13-1.95,44.65-.25,1.84,4.64,.04,9.88,1.32,15.44,1.23-.92,2.23-1.54,3.09-2.31,17.54-15.83,38.39-20.76,61.23-17.72,45.71,6.09,69.9,40.8,74.89,76.89,2.95,21.35,1.2,42.26-7.66,62.03-14.05,31.37-38.51,47.84-72.97,49.38-20.09,.9-37.89-4.67-53.06-18.1-.62-.55-1.35-.97-3.42-2.43Zm90.03-74.77c-1.23-6.67-1.85-13.52-3.82-19.96-3.85-12.61-11.73-22.08-24.16-27.31-23.25-9.8-48.81,.33-58.5,23.58-7.17,17.2-6.69,34.66,.96,51.54,6.58,14.51,18.37,22.78,34.27,24.33,17.49,1.71,31.9-4.05,41.79-19.16,6.53-9.97,8.87-21.09,9.47-33.01Z"/><path class="b" d="M1804.6,327.48h-47.5c-.26-2.99-.69-5.65-.69-8.32-.05-27.72-.03-55.44-.03-83.16,0-49.04,0-98.09,.02-147.13,0-2.93,.25-5.87,.37-8.59,5.05-1.64,38.29-2.06,47.7-.63,.23,2.63,.7,5.48,.71,8.34,.05,40.94,.03,81.88,.03,122.82v9.12c2.25-2.28,3.48-3.29,4.41-4.51,15.83-20.65,31.62-41.32,47.43-61.98,1.54-2.01,3.21-3.93,4.54-5.57,8.22-1.4,48.06-1.05,53.04,.51-2.39,5.33-6.54,9.33-9.87,13.85-3.29,4.46-6.77,8.78-10.16,13.17-3.53,4.55-7.06,9.1-10.59,13.65-3.4,4.38-6.81,8.75-10.22,13.12-3.54,4.54-7.08,9.08-10.6,13.63-3.37,4.35-6.73,8.72-10.31,13.37,22.5,32.53,44.76,64.71,67.11,97.03-4.89,1.96-43.89,2.57-56.19,1.02-18.75-28.86-37.86-58.27-56.98-87.69-.45,.07-.91,.14-1.36,.22-.08,2.2-.24,4.4-.24,6.6-.02,24.09,0,48.19-.04,72.28,0,2.71-.35,5.41-.59,8.84Z"/><path class="b" d="M998.95,249.96h-125.07c0,2.18-.22,3.63,.03,5.01,3.21,17.6,16.3,30.63,34.12,33.82,20.47,3.66,37.99-1.67,51.97-17.44,.82-.93,1.81-1.71,3.3-3.09,10.41,7.87,20.69,15.65,31.51,23.83-2.15,3.22-3.7,5.97-5.66,8.39-9.65,11.86-21.67,20.54-36.05,25.66-24.03,8.56-48.23,8.27-72.07-.46-24.88-9.11-42.23-26.42-51.07-51.36-9.99-28.19-9.05-56.41,4.43-83.27,15.76-31.41,41.9-47.25,77.1-48.08,9.24-.22,18.33,.76,27.23,3.16,27.79,7.49,45.78,25.4,54.96,52.36,4.93,14.48,6.54,29.52,6.2,44.77-.04,1.86-.51,3.72-.95,6.71Zm-49.77-33.42c1.84-16.62-13.82-32.44-32.66-33.4-22.98-1.16-40.89,13.5-40.83,33.44,5.13,1.55,67.3,1.6,73.49-.04Z"/><path class="b" d="M1442.95,197.14c-6-10.85-11.82-21.4-17.74-32.11,1.65-1.36,2.66-2.47,3.9-3.18,30.67-17.57,63.19-23.92,97.85-15.2,24.48,6.16,38.66,22.4,42.9,47.04,1.44,8.35,1.96,16.95,2.01,25.44,.22,33.26,.11,66.51,.06,99.77,0,2.7-.47,5.4-.76,8.51h-41.89c-1.29-3.23-2.45-6.12-3.77-9.42-1.48,.91-2.61,1.47-3.57,2.22-10.12,7.97-21.75,11.3-34.48,11.73-12.29,.42-24.24-.88-35.71-5.63-39.91-16.54-45.66-61.21-26.84-87.82,10.05-14.22,24.44-21.7,41.1-24.83,18.39-3.45,36.51-2.53,53.77,5.65,.57,.27,1.2,.39,1.82,.54,.18,.04,.4-.06,.61-.1,4.47-16.68-4.03-30.47-20.71-33.87-12.97-2.64-25.47-.3-37.77,3.46-6.69,2.05-13.14,4.89-20.8,7.79Zm50.22,97.05c8.11,0,13.72-1.24,18.74-3.96,15.78-8.53,16.73-30.26,1.25-39.29-12.72-7.43-26.3-7.35-38.97,.23-15.02,8.99-14.37,29.69,.78,38.5,5.87,3.41,12.26,4.81,18.19,4.52Z"/><path class="b" d="M97.33,161.26c39.6-22.07,79.41-43.75,119.49-65.74,39.95,21.97,79.69,43.81,119.15,65.51-.17,1.09-.17,1.3-.24,1.5-.06,.2-.14,.46-.29,.55-37.05,21.54-74.11,43.07-111.18,64.59-2.38,1.38-4.84,2.64-7.73,4.2-38.96-22.49-77.91-44.98-116.87-67.46-.93-.53-1.92-.96-2.87-1.44,.18-.57,.36-1.14,.54-1.71Z"/><path class="b" d="M89.07,178.8c4.61,.97,109.24,60.68,118.52,67.63,1.41,5.63,1.38,120.92-.23,126.85-10.46-4.38-19.86-10.56-29.74-15.76-10-5.26-19.8-10.89-29.7-16.34-9.9-5.45-19.81-10.87-29.71-16.32-9.88-5.44-19.75-10.9-29.22-16.13-1.65-7.07-1.43-125.13,.08-129.94Z"/><path class="b" d="M344.59,178.44c1.34,5.17,1.63,122,.28,130.16-39.02,21.45-78.53,43.17-118.73,65.27-.51-2.37-1.06-3.72-1.06-5.08-.04-39.65-.02-79.3,0-118.95,0-.84,.2-1.68,.29-2.41,3.62-3.72,112.72-66.93,119.21-68.99Z"/><path class="b" d="M1727.1,274.33c4.53,12.38,8.53,25.1,12.45,37.53-27.75,26.6-88.25,28.81-124.29-4.91-36.57-34.22-38.04-99.01-2.04-135.9,35.04-35.91,94.86-36.07,126.59-8.15-3.69,12.94-8.38,25.86-13.16,39.82-2.59-1.8-4.46-3.03-6.25-4.37-10.76-8-22.67-12.56-36.23-12.48-24.31,.16-43.36,16.24-47.49,40.19-2.68,15.54-.7,30.22,8.64,43.32,8.59,12.06,20.68,18.11,35.21,19.52,14.69,1.42,27.78-3.05,39.8-11.23,1.58-1.08,3.19-2.12,4.82-3.12,.32-.2,.82-.11,1.95-.23Z"/><path class="b" d="M431.92,355.1c-22.47-12.95-44.94-25.9-67.68-39.01-.25-2.46-.69-4.75-.69-7.03-.04-44.79-.04-89.58-.01-134.37,0-2.11,.25-4.22,.43-7.13,22.2-13.4,44.92-26.26,68.29-39.5,.64,2.21,1.19,3.5,1.35,4.84,.2,1.68,.07,3.41,.07,5.11,0,69.32,0,138.63,0,207.95,0,2.72,0,5.44,0,8.16-.58,.33-1.17,.65-1.75,.98Z"/><path class="b" d="M68.98,167.07c1.5,6.56,1.54,142.56,.07,149.15-22.15,12.76-44.78,25.79-67.04,38.62-.92-.57-1.13-.66-1.27-.8-.14-.15-.31-.35-.32-.54C.25,351.6,0,349.7,0,347.8c.04-72.7,.11-145.39,.2-218.09,0-.35,.41-.69,1.05-1.72,22.87,12.91,45.64,26.03,67.73,39.08Z"/><path class="b" d="M78.83,151.37c-23.25-13.56-45.88-26.15-68.63-39.85,1.65-1.48,2.44-2.48,3.47-3.06C77.47,72.4,141.29,36.38,205.75,0c.66,2.32,1.36,3.65,1.36,4.99,.06,24.1,.04,48.2,0,72.29,0,1.04-.32,2.08-.64,3.94-42.2,23.19-84.73,46.56-127.65,70.14Z"/><path class="b" d="M227.56,1.07c6.05,1.57,190.81,105.9,195.36,110.71-22.54,13.49-45.26,26.27-68.34,39.56-42.53-23.38-84.87-46.65-126.78-69.68-1.71-5.9-1.85-74.42-.24-80.59Z"/><path class="b" d="M15.11,368.74c23.63-14,47.23-27.47,71.44-41.28,39.95,21.96,79.87,43.9,119.32,65.59,1.56,5.55,1.9,76.45,.6,83.55-4.97-1.11-183.96-101.84-191.37-107.86Z"/><path class="b" d="M227.88,476.4c-1.68-4.78-2.2-72.88-.76-81.83,3.99-3.79,113.36-64.2,120.87-66.59,23.12,13.32,46.69,26.9,71.44,41.16-63.27,35.78-125.39,70.91-187.52,105.99-1.21,.68-2.7,.86-4.04,1.27Z"/></svg>