<?xml version="1.0" encoding="utf-8"?>
<!-- Generator: Adobe Illustrator 27.1.1, SVG Export Plug-In . SVG Version: 6.00 Build 0)  -->
<svg version="1.1" id="Layer_1" xmlns="http://www.w3.org/2000/svg" xmlns:xlink="http://www.w3.org/1999/xlink" x="0px" y="0px"
	 viewBox="0 0 24 24" style="enable-background:new 0 0 24 24;" xml:space="preserve">
<style type="text/css">
	.st0{fill-rule:evenodd;clip-rule:evenodd;fill:#DD6B20;}
	.st1{fill-rule:evenodd;clip-rule:evenodd;fill:#FFFFFF;}
</style>
<path class="st0" d="M12,0c6.6,0,12,5.4,12,12s-5.4,12-12,12S0,18.6,0,12S5.4,0,12,0z"/>
<path class="st1" d="M19.5,8.7c0,0.6-0.6,1.4-1.2,1.7l-2.9,1.4l-2,6l-1.1,0.6L12,13.6l-3.6,1.8l-0.7,1.8l-0.8,0.4l-0.3-2.7l-2-1.9
	l0.8-0.4c0,0,1.8,0.5,1.8,0.5l3.6-1.8L7.1,8.1l1.1-0.6l6,2l2.9-1.4c0.8-0.4,2-0.3,2.3,0.3C19.4,8.5,19.5,8.6,19.5,8.7z"/>
</svg>
